<svg width="501" height="565" viewBox="0 0 501 565" fill="none" xmlns="http://www.w3.org/2000/svg">
<ellipse id="ground" cx="250.5" cy="536" rx="250.5" ry="29" fill="black" fill-opacity="0.06"/>
<path id="scaffold" fill-rule="evenodd" clip-rule="evenodd" d="M85 1C85 0.447715 85.4477 0 86 0H404C404.552 0 405 0.447715 405 1V15C405 15.5523 404.552 16 404 16H199.522C199.257 16 199.002 16.1054 198.815 16.2929L101.293 113.815C101.105 114.002 101 114.257 101 114.522V530C101 530.552 100.552 531 100 531H86C85.4477 531 85 530.552 85 530V1ZM101 94.7229C101 95.6138 102.077 96.0599 102.707 95.43L180.43 17.7071C181.06 17.0771 180.614 16 179.723 16H102C101.448 16 101 16.4477 101 17V94.7229Z" fill="black"/>
</svg>